ModelForces
version=1
nRows=6
nColumns=75
inDegrees=no

This file contains the forces exerted on a model during a simulation.

A force is a generalized force, meaning that it can be either a force (N) or a torque (Nm).

Units are S.I. units (second, meters, Newtons, ...)
Angles are in degrees.

endheader
time	semimem_r	semiten_r	bifemlh_r	bifemsh_r	sar_r	grac_r	rect_fem_r	vas_med_r	vas_int_r	vas_lat_r	med_gas_r	lat_gas_r	femur_lat_meniscii_r.femur_lat_r.force.X	femur_lat_meniscii_r.femur_lat_r.force.Y	femur_lat_meniscii_r.femur_lat_r.force.Z	femur_lat_meniscii_r.femur_lat_r.torque.X	femur_lat_meniscii_r.femur_lat_r.torque.Y	femur_lat_meniscii_r.femur_lat_r.torque.Z	femur_lat_meniscii_r.meniscus_lat_r.force.X	femur_lat_meniscii_r.meniscus_lat_r.force.Y	femur_lat_meniscii_r.meniscus_lat_r.force.Z	femur_lat_meniscii_r.meniscus_lat_r.torque.X	femur_lat_meniscii_r.meniscus_lat_r.torque.Y	femur_lat_meniscii_r.meniscus_lat_r.torque.Z	femur_med_meniscii_r.femur_med_r.force.X	femur_med_meniscii_r.femur_med_r.force.Y	femur_med_meniscii_r.femur_med_r.force.Z	femur_med_meniscii_r.femur_med_r.torque.X	femur_med_meniscii_r.femur_med_r.torque.Y	femur_med_meniscii_r.femur_med_r.torque.Z	femur_med_meniscii_r.meniscus_med_r.force.X	femur_med_meniscii_r.meniscus_med_r.force.Y	femur_med_meniscii_r.meniscus_med_r.force.Z	femur_med_meniscii_r.meniscus_med_r.torque.X	femur_med_meniscii_r.meniscus_med_r.torque.Y	femur_med_meniscii_r.meniscus_med_r.torque.Z	femur_med_tibia_r.tibia_upper_r.force.X	femur_med_tibia_r.tibia_upper_r.force.Y	femur_med_tibia_r.tibia_upper_r.force.Z	femur_med_tibia_r.tibia_upper_r.torque.X	femur_med_tibia_r.tibia_upper_r.torque.Y	femur_med_tibia_r.tibia_upper_r.torque.Z	femur_med_tibia_r.femur_med_r.force.X	femur_med_tibia_r.femur_med_r.force.Y	femur_med_tibia_r.femur_med_r.force.Z	femur_med_tibia_r.femur_med_r.torque.X	femur_med_tibia_r.femur_med_r.torque.Y	femur_med_tibia_r.femur_med_r.torque.Z	femur_lat_tibia_r.tibia_upper_r.force.X	femur_lat_tibia_r.tibia_upper_r.force.Y	femur_lat_tibia_r.tibia_upper_r.force.Z	femur_lat_tibia_r.tibia_upper_r.torque.X	femur_lat_tibia_r.tibia_upper_r.torque.Y	femur_lat_tibia_r.tibia_upper_r.torque.Z	femur_lat_tibia_r.femur_lat_r.force.X	femur_lat_tibia_r.femur_lat_r.force.Y	femur_lat_tibia_r.femur_lat_r.force.Z	femur_lat_tibia_r.femur_lat_r.torque.X	femur_lat_tibia_r.femur_lat_r.torque.Y	femur_lat_tibia_r.femur_lat_r.torque.Z	aACL_R	pACL_R	aPCL_R	pPCL_R	aMCL_R	mMCL_R	pMCL_R	aLCL_R	mLCL_R	pLCL_R	aPCL_L	pPCL_L	aMCL_L	aLCL_L
      0.05770761	    415.55590030	    218.10996130	    416.84736535	    327.22361997	    106.96334266	    113.16331285	     17.15843630	     39.31378876	     42.89071017	     57.77564629	      9.51764920	      1.06969154	   -252.12164678	     55.30549879	     35.36094374	     -1.41206096	    -20.70961950	     22.39595434	    252.12164678	    -55.30549879	    -35.36094374	      1.96273341	      7.99439003	      1.41728319	   -223.95122725	      5.90371459	     12.29136061	     -0.04448212	     -0.47410296	      1.36529267	    223.95122725	     -5.90371459	    -12.29136061	      0.19125485	     -3.48885284	      3.21240179	    940.25301903	     18.04026135	     51.00911871	     -0.12067932	    -17.63021947	     10.37854566	   -940.25301903	    -18.04026135	    -51.00911871	     -0.46677779	     40.34209909	     -7.58237748	    218.25889272	     11.88984839	    -57.00022642	      0.24491717	      7.72045060	      2.56686645	   -218.25889272	    -11.88984839	     57.00022642	      0.30413440	    -28.84735214	     -4.87142342	     65.07149858	     32.34435465	      0.00000000	      0.00000000	      0.00000000	     -7.18968719	    -47.91513163	      0.00000000	      0.00000000	      0.00000000	      0.00000000	      0.00000000	      0.00000001	      0.00000000
      0.05836707	    411.37594657	    218.70090217	    414.07763251	    326.42724125	    107.01787901	    113.27381413	     17.98227291	     39.31755184	     43.93885853	     61.87105798	      9.32655232	      0.80374064	   -254.15064405	     52.40347314	     35.72449991	     -1.34456114	    -20.91433742	     21.15902313	    254.15064405	    -52.40347314	    -35.72449991	      1.89377794	      8.05642068	      1.60919756	   -225.66467779	      6.51316254	     12.10641266	     -0.04040314	     -0.37723871	      1.58198329	    225.66467779	     -6.51316254	    -12.10641266	      0.18922787	     -3.51731362	      3.28736492	    939.85138806	     13.13743254	     48.75685877	     -0.20126720	    -17.56080922	     10.45712983	   -939.85138806	    -13.13743254	    -48.75685877	     -0.35467936	     39.37667914	     -5.61878225	    204.19088199	     12.60220740	    -53.07250548	      0.20492344	      7.20516025	      2.51765470	   -204.19088199	    -12.60220740	     53.07250548	      0.31101057	    -26.88194846	     -5.20495849	     65.49340084	     31.91784311	      0.00000000	      0.00000000	      0.00000000	     -6.65150754	    -47.88949817	      0.00000000	      0.00000000	      0.00000000	      0.00000000	      0.00000000	      0.00000001	      0.00000000
      0.05902653	    407.37407043	    218.99645401	    411.29073506	    325.66950757	    107.09279849	    113.40578744	     17.18897543	     39.29008991	     45.74569060	     56.65667186	      9.20377962	      0.54830781	   -255.58603025	     46.36429962	     36.18746227	     -1.19256658	    -21.13689270	     18.58822511	    255.58603025	    -46.36429962	    -36.18746227	      1.73141704	      8.09606339	      1.92582928	   -230.25584313	      6.83335196	     12.13492115	     -0.03834788	     -0.30367024	      1.67057989	    230.25584313	     -6.83335196	    -12.13492115	      0.19044338	     -3.59496895	      3.41075940	    942.46762196	     12.92571752	     46.95778895	     -0.20061399	    -17.56135849	     10.76008339	   -942.46762196	    -12.92571752	    -46.95778895	     -0.34357879	     38.66512277	     -5.64692143	    190.82993406	     14.83493944	    -49.34178921	      0.12770242	      6.71677933	      2.52915773	   -190.82993406	    -14.83493944	     49.34178921	      0.35085482	    -25.01546323	     -6.17995400	     65.21271503	     30.80110006	      0.00000000	      0.00000000	      0.00000000	     -6.51647731	    -48.26281354	      0.00000000	      0.00000000	      0.00000000	      0.00000000	      0.00000000	      0.00000001	      0.00000000
      0.05968600	    403.45481834	    219.02939269	    408.41692845	    324.77697248	    107.13556963	    113.51958963	     18.09755809	     39.35923042	     47.66031299	     61.16154154	      9.14542950	      0.30102655	   -256.96306110	     42.23112384	     36.60535558	     -1.08943240	    -21.34186139	     16.82623780	    256.96306110	    -42.23112384	    -36.60535558	      1.62415344	      8.13511497	      2.16386045	   -227.96463465	      8.01121704	     11.78803386	     -0.02164793	     -0.19779812	      2.17045491	    227.96463465	     -8.01121704	    -11.78803386	      0.17569454	     -3.58355946	      3.37843116	    943.36046248	      9.16021768	     44.79696191	     -0.25806779	    -17.51790795	     10.90235680	   -943.36046248	     -9.16021768	    -44.79696191	     -0.25821675	     37.76513638	     -4.17035122	    178.08197447	     15.66078324	    -45.76546539	      0.08496761	      6.25124199	      2.48356611	   -178.08197447	    -15.66078324	     45.76546539	      0.36122439	    -23.22785734	     -6.55668851	     65.35375911	     30.10832816	      0.00000000	      0.00000000	      0.00000000	     -6.14521188	    -48.36766779	      0.00000000	      0.00000000	      0.00000000	      0.00000000	      0.00000000	      0.00000001	      0.00000000
      0.06034546	    399.68485226	    218.89293966	    405.52242575	    323.92726637	    107.20007740	    113.65148187	     17.41030972	     39.31209278	     40.35496044	     58.60548049	      9.15982681	      0.06346198	   -259.05126703	     35.54069363	     37.27814851	     -0.92293736	    -21.66799839	     13.97793264	    259.05126703	    -35.54069363	    -37.27814851	      1.44853925	      8.19979053	      2.51503467	   -229.95109819	      6.36682313	     12.65004867	     -0.02487588	     -0.49528681	      1.45465975	    229.95109819	     -6.36682313	    -12.65004867	      0.18493590	     -3.61852625	      3.52539202	    946.83116555	     10.78646057	     43.14238396	     -0.22831585	    -17.53857043	     11.28780423	   -946.83116555	    -10.78646057	    -43.14238396	     -0.28244176	     37.13204589	     -4.97714296	    166.45099049	     17.47717388	    -42.55607328	      0.01933999	      5.82796236	      2.48203741	   -166.45099049	    -17.47717388	     42.55607328	      0.39411045	    -21.61851654	     -7.34985085	     64.65763870	     28.59297897	      0.00000000	      0.00000000	      0.00000000	     -6.21292576	    -48.90634967	      0.00000000	      0.00000000	      0.00000000	      0.00000000	      0.00000000	      0.00000001	      0.00000000
      0.06096949	    396.17585966	    218.61158476	    402.70772234	    322.99443665	    107.23251780	    113.75972573	     18.24994770	     41.25474473	     44.36289838	     62.00632380	      9.23768765	      0.00000000	   -258.07589475	     32.41801576	     37.07250508	     -0.84124006	    -21.54622071	     12.64469004	    258.07589475	    -32.41801576	    -37.07250508	      1.35957148	      8.14420031	      2.68299697	   -232.68385893	      7.60375883	     11.72749409	      0.00647794	     -0.05979320	      1.94194608	    232.68385893	     -7.60375883	    -11.72749409	      0.14905391	     -3.69915668	      3.58113482	    944.95219251	      3.57564141	     42.77701382	     -0.36130611	    -17.51994715	     11.24378070	   -944.95219251	     -3.57564141	    -42.77701382	     -0.12913082	     36.93870964	     -2.03311160	    155.81264915	     17.27309703	    -39.53300017	      0.00266875	      5.43730744	      2.40089470	   -155.81264915	    -17.27309703	     39.53300017	      0.38509587	    -20.10873307	     -7.28295082	     65.09818276	     28.25252222	      0.00000000	      0.00000000	      0.00000000	     -5.42465448	    -48.52507059	      0.00000000	      0.00000000	      0.00000000	      0.00000000	      0.00000000	      0.00000001	      0.00000000
